PathFileType	4	(X/Y/Z)	./resultDataOpenSim/trcMotMarkerGrf/sub09/qtm-12-05.trc
DataRate	CameraRate	NumFrames	NumMarkers	Units	OrigDataRate	OrigDataStartFrame	OrigNumFrames
250.000000	250.000000	10	24	m	250.000000	178	473
Frame#	Time	L.Toe.Tip			R.Toe.Tip			L.Ankle.Lat			R.Ankle.Lat			L.Ankle.Med			R.Ankle.Med			L.Heel			R.Heel			L.Knee.Lat			R.Knee.Lat			L.Knee.Med			R.Knee.Med			L.Thigh.Upper			R.Thigh.Upper			L.ASIS			R.ASIS			V.Sacral			L.Acromium			R.Acromium			C7			L.Elbow			R.Elbow			L.Wrist.Lat			R.Wrist.Lat
		X1	Y1	Z1	X2	Y2	Z2	X3	Y3	Z3	X4	Y4	Z4	X5	Y5	Z5	X6	Y6	Z6	X7	Y7	Z7	X8	Y8	Z8	X9	Y9	Z9	X10	Y10	Z10	X11	Y11	Z11	X12	Y12	Z12	X13	Y13	Z13	X14	Y14	Z14	X15	Y15	Z15	X16	Y16	Z16	X17	Y17	Z17	X18	Y18	Z18	X19	Y19	Z19	X20	Y20	Z20	X21	Y21	Z21	X22	Y22	Z22	X23	Y23	Z23	X24	Y24	Z24

178	0.708	0.18341123	0.015544491	-0.027775625	-0.55170379	0.070299073	0.053038769	0.03869357	0.047254686	-0.084074802	-0.59348791	0.21625906	0.094288627	0.047494842	0.068050629	0.013679738	-0.54574628	0.21616098	0.0082870734	-0.036896434	0.011889101	-0.045771647	-0.63735252	0.26142971	0.037128164	0.063686052	0.45854888	-0.13674824	-0.19988995	0.42434554	0.15909024	0.055035754	0.46260646	-0.012016605	-0.1886517	0.40125165	0.031042198	-0.13902948	0.83002213	-0.19251937	-0.18058398	0.82202038	0.17891851	-0.07728215	0.92055424	-0.12414073	-0.08069789	0.90925933	0.11620173	-0.2472775	0.96372273	-0.0092644699	-0.090971956	1.3588319	-0.19122154	-0.12020411	1.3823861	0.13986687	-0.17352814	1.4201386	-0.029697036	-0.25470995	1.0343533	-0.24609995	-0.24089335	1.0316956	0.23033861	-0.16319199	0.7908943	-0.29797681	-0.0406267	0.84125724	0.23708557
179	0.712	0.18341232	0.015502774	-0.027673928	-0.54212226	0.073856246	0.054924018	0.038926879	0.047156786	-0.084084116	-0.58176102	0.22102986	0.094775658	0.047516673	0.06795728	0.013720773	-0.5340809	0.22047617	0.008665276	-0.036903399	0.011929963	-0.045824526	-0.62462692	0.26712949	0.037554098	0.067529231	0.45816012	-0.13681892	-0.18718408	0.42433504	0.15890313	0.059004481	0.46194152	-0.01209519	-0.17576439	0.40148715	0.031225511	-0.13314796	0.83062789	-0.19259807	-0.17453149	0.82220857	0.17871062	-0.071076505	0.92127583	-0.12451322	-0.074953468	0.90994217	0.11598703	-0.24083727	0.96460706	-0.0096643104	-0.083720898	1.3592436	-0.19126082	-0.11334677	1.3829687	0.13980412	-0.16655908	1.420899	-0.02992714	-0.24703622	1.0344215	-0.24660405	-0.23545638	1.0326756	0.23010004	-0.15400828	0.79115019	-0.29746914	-0.036782018	0.84058157	0.2368985
180	0.716	0.18340816	0.015468936	-0.027623823	-0.53149505	0.077710188	0.056854993	0.039187947	0.047048463	-0.08412465	-0.56975283	0.2257814	0.095109179	0.047563072	0.067878747	0.013691391	-0.52217063	0.22486737	0.0088813298	-0.036915106	0.01196728	-0.045900215	-0.61183936	0.27231393	0.037715561	0.071067929	0.45774284	-0.13681151	-0.17373952	0.42474665	0.15894901	0.062544847	0.46136607	-0.012112098	-0.16319643	0.40208628	0.031664585	-0.12710154	0.8313697	-0.19269906	-0.16860525	0.82253167	0.1784727	-0.064878993	0.92203391	-0.12479681	-0.069300201	0.91071935	0.11586326	-0.23461332	0.965613	-0.010081391	-0.076522533	1.3597453	-0.19127242	-0.10658083	1.3836264	0.13976697	-0.15964397	1.4217694	-0.030136956	-0.23941767	1.0345499	-0.24716501	-0.22997867	1.0337318	0.2298051	-0.14477821	0.79148315	-0.29689421	-0.032974977	0.83995839	0.23671703
181	0.72	0.18340022	0.015439986	-0.027619131	-0.51996922	0.081775909	0.058845965	0.039437659	0.046952629	-0.084180198	-0.55744276	0.23050128	0.09527365	0.047656089	0.067824287	0.013626884	-0.50997765	0.2292262	0.0089854605	-0.036928292	0.011999755	-0.045974563	-0.59908388	0.27703947	0.037668968	0.074312365	0.45735291	-0.13673472	-0.15963367	0.42537216	0.15900688	0.065604667	0.4608868	-0.012107027	-0.15084909	0.40299316	0.032217013	-0.12084023	0.83227079	-0.19282534	-0.16278957	0.82298554	0.17821497	-0.058725866	0.92283513	-0.12500593	-0.063744547	0.91159914	0.11581103	-0.22860006	0.96672525	-0.010440912	-0.069377254	1.3603422	-0.19125584	-0.099899106	1.3843709	0.13974912	-0.15284286	1.4227989	-0.030302557	-0.23181742	1.0347368	-0.24770192	-0.22451654	1.0348573	0.22948952	-0.13549396	0.79191602	-0.29623455	-0.029213174	0.83939262	0.2365404
182	0.724	0.18338912	0.015415524	-0.027639066	-0.5076575	0.085919516	0.060970835	0.039649154	0.046883959	-0.084234148	-0.54481918	0.23513224	0.095315731	0.047799667	0.067799024	0.013563614	-0.49749009	0.23341028	0.0090055202	-0.036939405	0.012028775	-0.046027703	-0.58629799	0.28134554	0.037426768	0.077277413	0.4571382	-0.13670083	-0.14530542	0.42615046	0.15897094	0.068214487	0.46050227	-0.012092657	-0.13844795	0.40414429	0.032556528	-0.11440422	0.83334251	-0.19296588	-0.15706214	0.82356588	0.17795729	-0.052615414	0.92369171	-0.12513918	-0.058283974	0.91258498	0.11581679	-0.22266927	0.967946	-0.010755707	-0.062281551	1.3610353	-0.19121272	-0.093290434	1.3852073	0.13974451	-0.14614599	1.4239636	-0.03042737	-0.22420297	1.0349808	-0.24815294	-0.21912471	1.0360353	0.22921519	-0.1261462	0.79246819	-0.29547324	-0.025495697	0.83889218	0.23637053
183	0.728	0.1833736	0.015397856	-0.027657916	-0.49463227	0.090034458	0.063291874	0.039813893	0.046844198	-0.084275829	-0.53189123	0.23959316	0.095304681	0.047967855	0.067798006	0.013518245	-0.48470571	0.2372739	0.0089699673	-0.036949596	0.012055811	-0.046054965	-0.57336921	0.28526847	0.03701666	0.080003567	0.45723596	-0.13686774	-0.13118866	0.4270812	0.15880683	0.070480252	0.4602086	-0.012062458	-0.12581076	0.40550461	0.0325122	-0.10790452	0.83456775	-0.1931164	-0.15140124	0.82426826	0.17770759	-0.046524222	0.92462293	-0.12519196	-0.052900137	0.91367596	0.11587136	-0.21673904	0.96927914	-0.011051922	-0.055230008	1.3618245	-0.19114278	-0.086759463	1.3861346	0.13975111	-0.1395026	1.4251997	-0.030538814	-0.21657312	1.0352933	-0.24851845	-0.21377829	1.0372683	0.22901993	-0.11674584	0.79314625	-0.29461817	-0.02182354	0.83846882	0.2362091
184	0.732	0.18335092	0.015389648	-0.027661295	-0.48097508	0.094061063	0.06582029	0.039933436	0.046826175	-0.084302823	-0.51868817	0.24380762	0.095295769	0.048120137	0.067810712	0.013488807	-0.47164438	0.240727	0.0089178461	-0.036964928	0.012081034	-0.046064563	-0.56025981	0.28882694	0.036509066	0.082607853	0.45759072	-0.13724529	-0.11749549	0.4281849	0.15851974	0.072523166	0.4599981	-0.012008137	-0.11295305	0.40707552	0.032175608	-0.10149701	0.83590292	-0.19328522	-0.14578505	0.82509486	0.17745908	-0.040446692	0.92564525	-0.12517594	-0.047569926	0.91486847	0.11596207	-0.21082382	0.9707149	-0.011341135	-0.048222521	1.3627117	-0.19104422	-0.080321277	1.3871514	0.13977253	-0.13288011	1.4264713	-0.030658415	-0.20895316	1.0356962	-0.24883398	-0.2083924	1.0385882	0.22891779	-0.10732865	0.7939476	-0.29369785	-0.018206022	0.83813535	0.23605513
185	0.736	0.18331639	0.015391474	-0.027650127	-0.46680467	0.097957403	0.068507424	0.04001194	0.046820093	-0.084320229	-0.50524961	0.24772339	0.095319496	0.048226622	0.06782797	0.01346391	-0.45836436	0.2437704	0.0088899809	-0.036993572	0.012102565	-0.046069191	-0.54701505	0.29201649	0.035997678	0.085235202	0.45794628	-0.13763148	-0.1041777	0.42950614	0.15814303	0.074427099	0.45985374	-0.011934402	-0.099939427	0.40887413	0.03171512	-0.095323861	0.83730338	-0.1934878	-0.14018465	0.82605702	0.17721035	-0.034407079	0.92676445	-0.12511352	-0.042279638	0.91615897	0.11607044	-0.20498222	0.97222704	-0.011632342	-0.041269984	1.3637013	-0.1909142	-0.073991363	1.3882637	0.1398157	-0.1262837	1.4277894	-0.030780121	-0.20137354	1.0362075	-0.24912745	-0.20292712	1.0400362	0.22890277	-0.09794146	0.79487025	-0.2927396	-0.014651298	0.83790654	0.23590849
186	0.74	0.18326393	0.015401641	-0.027632694	-0.45224027	0.10169227	0.071256413	0.040055215	0.046817009	-0.084337291	-0.49161384	0.25131189	0.095379717	0.048279386	0.067846204	0.013431296	-0.44493646	0.246472	0.0089086613	-0.037041893	0.012116833	-0.046078884	-0.53370204	0.29481935	0.035560161	0.087919859	0.45809194	-0.13782442	-0.091055723	0.43109915	0.15772077	0.076228969	0.45974779	-0.011864458	-0.086772418	0.41090152	0.031234803	-0.089419344	0.8387508	-0.19373654	-0.13456386	0.82716698	0.17697021	-0.028432165	0.92797897	-0.12502387	-0.037025112	0.917549	0.11617577	-0.19926034	0.97377587	-0.011927452	-0.034385388	1.364799	-0.19074477	-0.067785317	1.3894818	0.13988593	-0.11973319	1.42918	-0.030883675	-0.19384913	1.036832	-0.24940173	-0.19743468	1.0416311	0.22894295	-0.088632532	0.79591299	-0.29176666	-0.01115852	0.83779918	0.23577324
187	0.744	0.18319016	0.015417123	-0.027617293	-0.43735798	0.10525309	0.073950324	0.040072048	0.046810209	-0.084362911	-0.47781208	0.25455761	0.09546782	0.048287979	0.067867505	0.013382979	-0.43138155	0.24890944	0.0089593303	-0.037111514	0.012121107	-0.046098504	-0.52037447	0.29721302	0.03523245	0.090564103	0.45801694	-0.13780095	-0.077983497	0.43298802	0.15728577	0.077945918	0.45965037	-0.011826332	-0.073441917	0.41313806	0.030765396	-0.083695689	0.84025115	-0.19403319	-0.12890827	0.82842591	0.17673709	-0.022524891	0.92928391	-0.12492366	-0.031799904	0.91904466	0.11625987	-0.19365769	0.97531166	-0.012233818	-0.027569563	1.3660068	-0.19052571	-0.06171644	1.3908067	0.13998325	-0.11324205	1.4306522	-0.030956468	-0.18637043	1.0375643	-0.2496468	-0.1919908	1.0433572	0.2289899	-0.079417865	0.79707482	-0.29078493	-0.0077223643	0.83782417	0.23565309
